<svg width="1903" height="600" viewBox="0 0 1903 600" fill="none" xmlns="http://www.w3.org/2000/svg">
<path fill-rule="evenodd" clip-rule="evenodd" d="M384.171 7.92083C210.391 -20.7605 64.7062 25.2591 40.8083 198.485C20.8393 405.359 109.472 456.171 171.847 490.24C260.21 538.501 325.114 467.707 347.844 538.147C370.574 608.585 392.268 599.594 408.476 599.35C437.875 600.828 530.132 556.095 554.933 348.675C579.734 141.246 533.917 39.3702 384.171 7.92083ZM71.4389 167.681C97.059 109.201 172.918 68.246 314.454 79.2085C427.472 87.9652 445.004 195.509 445.48 244.145C446.206 318.08 409.549 355.431 391.433 367.271C359.816 388.774 272.463 424.868 155.624 391.575C45.148 345.858 52.1082 211.801 71.4389 167.681Z" fill="white"/>
<rect width="29.0323" height="106.452" rx="14.5161" transform="matrix(-0.999126 0.0417903 0.0417903 0.999126 321.722 173.097)" fill="white"/>
<rect width="29.0323" height="106.452" rx="14.5161" transform="matrix(-0.999126 0.0417903 0.0417903 0.999126 176.391 180.128)" fill="white"/>
<path d="M722.224 392C712.394 392 704.764 389.284 699.332 383.852C694.158 378.42 691.572 370.919 691.572 361.348V148.336C691.572 138.248 694.158 130.617 699.332 125.444C704.505 120.271 712.006 117.684 721.836 117.684C731.406 117.684 738.778 120.271 743.952 125.444C749.125 130.617 751.712 138.248 751.712 148.336V341.172H855.696C863.973 341.172 870.31 343.371 874.708 347.768C879.364 352.165 881.692 358.373 881.692 366.392C881.692 374.669 879.364 381.007 874.708 385.404C870.31 389.801 863.973 392 855.696 392H722.224Z" fill="white"/>
<path d="M938.434 395.104C928.863 395.104 921.491 392.388 916.318 386.956C911.403 381.265 908.946 373.376 908.946 363.288V230.592C908.946 220.245 911.403 212.356 916.318 206.924C921.491 201.233 928.863 198.388 938.434 198.388C947.746 198.388 954.859 201.233 959.774 206.924C964.947 212.356 967.534 220.245 967.534 230.592V363.288C967.534 373.376 965.076 381.265 960.162 386.956C955.247 392.388 948.004 395.104 938.434 395.104ZM938.434 166.572C927.57 166.572 919.163 164.115 913.214 159.2C907.523 154.027 904.678 146.784 904.678 137.472C904.678 127.901 907.523 120.659 913.214 115.744C919.163 110.571 927.57 107.984 938.434 107.984C949.298 107.984 957.575 110.571 963.266 115.744C968.956 120.659 971.802 127.901 971.802 137.472C971.802 146.784 968.956 154.027 963.266 159.2C957.575 164.115 949.298 166.572 938.434 166.572Z" fill="white"/>
<path d="M1042.25 395.492C1032.68 395.492 1025.31 392.905 1020.14 387.732C1015.22 382.559 1012.77 375.187 1012.77 365.616V227.876C1012.77 218.305 1015.22 211.063 1020.14 206.148C1025.31 200.975 1032.42 198.388 1041.48 198.388C1050.79 198.388 1057.9 200.975 1062.82 206.148C1067.73 211.063 1070.19 218.305 1070.19 227.876V249.992L1065.92 237.188C1071.87 224.513 1080.67 214.813 1092.31 208.088C1104.2 201.104 1117.66 197.612 1132.66 197.612C1147.92 197.612 1160.46 200.587 1170.29 206.536C1180.12 212.227 1187.5 221.021 1192.41 232.92C1197.32 244.56 1199.78 259.433 1199.78 277.54V365.616C1199.78 375.187 1197.2 382.559 1192.02 387.732C1187.11 392.905 1179.86 395.492 1170.29 395.492C1160.98 395.492 1153.74 392.905 1148.57 387.732C1143.65 382.559 1141.19 375.187 1141.19 365.616V280.256C1141.19 267.064 1138.74 257.623 1133.82 251.932C1129.17 245.983 1121.92 243.008 1112.09 243.008C1099.68 243.008 1089.72 246.888 1082.22 254.648C1074.98 262.408 1071.35 272.755 1071.35 285.688V365.616C1071.35 385.533 1061.65 395.492 1042.25 395.492Z" fill="white"/>
<path d="M1405.7 465.332C1396.13 465.332 1388.89 462.745 1383.98 457.572C1379.06 452.657 1376.6 445.285 1376.6 435.456V356.304H1380.87C1376.73 368.203 1368.84 377.903 1357.2 385.404C1345.82 392.647 1332.63 396.268 1317.63 396.268C1301.07 396.268 1286.46 392.259 1273.78 384.24C1261.37 376.221 1251.67 364.711 1244.68 349.708C1237.7 334.705 1234.21 316.987 1234.21 296.552C1234.21 276.117 1237.7 258.528 1244.68 243.784C1251.67 229.04 1261.37 217.659 1273.78 209.64C1286.46 201.621 1301.07 197.612 1317.63 197.612C1332.89 197.612 1346.34 201.492 1357.98 209.252C1369.88 216.753 1377.64 226.712 1381.26 239.128L1376.99 254.26V227.876C1376.99 218.305 1379.45 211.063 1384.36 206.148C1389.54 200.975 1396.78 198.388 1406.09 198.388C1415.4 198.388 1422.52 200.975 1427.43 206.148C1432.61 211.063 1435.19 218.305 1435.19 227.876V435.456C1435.19 445.285 1432.61 452.657 1427.43 457.572C1422.26 462.745 1415.02 465.332 1405.7 465.332ZM1335.09 352.424C1343.62 352.424 1351 350.355 1357.2 346.216C1363.41 342.077 1368.33 335.999 1371.95 327.98C1375.57 319.703 1377.38 309.227 1377.38 296.552C1377.38 277.669 1373.5 263.831 1365.74 255.036C1357.98 245.983 1347.76 241.456 1335.09 241.456C1326.81 241.456 1319.44 243.396 1312.97 247.276C1306.76 251.156 1301.85 257.235 1298.23 265.512C1294.87 273.531 1293.18 283.877 1293.18 296.552C1293.18 315.435 1297.06 329.532 1304.82 338.844C1312.58 347.897 1322.67 352.424 1335.09 352.424Z" fill="white"/>
<path d="M1550.56 396.268C1534.53 396.268 1521.21 393.293 1510.6 387.344C1499.99 381.395 1492.11 372.471 1486.93 360.572C1482.02 348.415 1479.56 333.412 1479.56 315.564V227.876C1479.56 218.047 1482.02 210.675 1486.93 205.76C1492.11 200.845 1499.35 198.388 1508.66 198.388C1517.97 198.388 1525.21 200.845 1530.39 205.76C1535.56 210.675 1538.15 218.047 1538.15 227.876V317.116C1538.15 328.497 1540.48 337.033 1545.13 342.724C1549.79 348.156 1557.16 350.872 1567.25 350.872C1578.37 350.872 1587.42 346.992 1594.41 339.232C1601.65 331.213 1605.27 320.737 1605.27 307.804V227.876C1605.27 218.047 1607.73 210.675 1612.64 205.76C1617.82 200.845 1625.06 198.388 1634.37 198.388C1643.94 198.388 1651.19 200.845 1656.1 205.76C1661.27 210.675 1663.86 218.047 1663.86 227.876V365.616C1663.86 385.533 1654.42 395.492 1635.54 395.492C1626.22 395.492 1619.11 392.905 1614.2 387.732C1609.28 382.559 1606.82 375.187 1606.82 365.616V339.62L1612.64 354.752C1606.95 367.944 1598.81 378.161 1588.2 385.404C1577.59 392.647 1565.05 396.268 1550.56 396.268Z" fill="white"/>
<path d="M1800.76 396.268C1780.33 396.268 1762.48 392.259 1747.22 384.24C1732.22 376.221 1720.58 364.711 1712.3 349.708C1704.02 334.705 1699.88 316.987 1699.88 296.552C1699.88 281.291 1702.21 267.581 1706.87 255.424C1711.52 243.267 1718.25 232.92 1727.04 224.384C1736.1 215.589 1746.83 208.993 1759.25 204.596C1771.66 199.94 1785.5 197.612 1800.76 197.612C1821.2 197.612 1838.92 201.621 1853.92 209.64C1869.18 217.659 1880.95 229.04 1889.23 243.784C1897.76 258.528 1902.03 276.117 1902.03 296.552C1902.03 312.072 1899.57 325.911 1894.66 338.068C1890 350.225 1883.28 360.701 1874.48 369.496C1865.69 378.291 1854.95 385.016 1842.28 389.672C1829.86 394.069 1816.03 396.268 1800.76 396.268ZM1800.76 352.424C1809.3 352.424 1816.67 350.355 1822.88 346.216C1829.09 342.077 1834 335.999 1837.62 327.98C1841.24 319.703 1843.06 309.227 1843.06 296.552C1843.06 277.669 1839.18 263.831 1831.42 255.036C1823.66 245.983 1813.44 241.456 1800.76 241.456C1792.49 241.456 1785.11 243.396 1778.65 247.276C1772.44 251.156 1767.53 257.235 1763.9 265.512C1760.54 273.531 1758.86 283.877 1758.86 296.552C1758.86 315.435 1762.74 329.532 1770.5 338.844C1778.26 347.897 1788.35 352.424 1800.76 352.424Z" fill="white"/>
</svg>
