<svg width="49" height="48" viewBox="0 0 49 48" fill="none" xmlns="http://www.w3.org/2000/svg">
<rect x="0.5" width="48" height="48" rx="24" fill="url(#paint0_radial_7336_4901)"/>
<path d="M32 15H29.75V14.25C29.75 14.0511 29.671 13.8603 29.5303 13.7197C29.3897 13.579 29.1989 13.5 29 13.5C28.8011 13.5 28.6103 13.579 28.4697 13.7197C28.329 13.8603 28.25 14.0511 28.25 14.25V15H20.75V14.25C20.75 14.0511 20.671 13.8603 20.5303 13.7197C20.3897 13.579 20.1989 13.5 20 13.5C19.8011 13.5 19.6103 13.579 19.4697 13.7197C19.329 13.8603 19.25 14.0511 19.25 14.25V15H17C16.6022 15 16.2206 15.158 15.9393 15.4393C15.658 15.7206 15.5 16.1022 15.5 16.5V31.5C15.5 31.8978 15.658 32.2794 15.9393 32.5607C16.2206 32.842 16.6022 33 17 33H32C32.3978 33 32.7794 32.842 33.0607 32.5607C33.342 32.2794 33.5 31.8978 33.5 31.5V16.5C33.5 16.1022 33.342 15.7206 33.0607 15.4393C32.7794 15.158 32.3978 15 32 15ZM32 19.5H17V16.5H19.25V17.25C19.25 17.4489 19.329 17.6397 19.4697 17.7803C19.6103 17.921 19.8011 18 20 18C20.1989 18 20.3897 17.921 20.5303 17.7803C20.671 17.6397 20.75 17.4489 20.75 17.25V16.5H28.25V17.25C28.25 17.4489 28.329 17.6397 28.4697 17.7803C28.6103 17.921 28.8011 18 29 18C29.1989 18 29.3897 17.921 29.5303 17.7803C29.671 17.6397 29.75 17.4489 29.75 17.25V16.5H32V19.5Z" fill="white"/>
<defs>
<radialGradient id="paint0_radial_7336_4901" cx="0" cy="0" r="1" gradientUnits="userSpaceOnUse" gradientTransform="translate(24.66 48) rotate(-90) scale(48 29.8646)">
<stop offset="0.200489" stop-color="#6D7A97"/>
<stop offset="0.822031" stop-color="#0E121B"/>
</radialGradient>
</defs>
</svg>
